# xmcd CD database file
#
# Track frame offsets:
#	150
#	18105
#	43512
#	62187
#	83337
#	101410
#	124220
#	138992
#	158320
#	181365
#
# Disc length: 2700 seconds
#
# Revision: 0
# Processed by: cddbd v1.4PL0 Copyright (c) Steve Scherf et al.
# Submitted via: CDex 1.50beta10
#
DISCID=6e0a8a0a
DTITLE=Latimore - The Only Way Up
DYEAR=1900
DGENRE=Blues
TTITLE0=I need a good woman bad
TTITLE1=The only way is up
TTITLE2=Take me to the mountaintop
TTITLE3=If I wasn't a gentleman
TTITLE4=A home away fro home
TTITLE5=It ain't what 's on a woman
TTITLE6=Stop half lovin these women
TTITLE7=I'm going to see her again
TTITLE8=Here comes that woman of mine
TTITLE9=Can't stop
EXTD=
EXTT0=
EXTT1=
EXTT2=
EXTT3=
EXTT4=
EXTT5=
EXTT6=
EXTT7=
EXTT8=
EXTT9=
PLAYORDER=
